<mxfile host="Electron" modified="2023-10-12T12:00:07.103Z" agent="Mozilla/5.0 (Windows NT 10.0; Win64; x64) AppleWebKit/537.36 (KHTML, like Gecko) draw.io/21.8.2 Chrome/114.0.5735.289 Electron/25.8.1 Safari/537.36" etag="K4ygyaHVL2Ma5fjWN8rq" version="21.8.2" type="device">
  <diagram name="Страница — 1" id="QSQK8Q44flGUmi55xw_u">
    <mxGraphModel dx="819" dy="478" grid="1" gridSize="10" guides="1" tooltips="1" connect="1" arrows="1" fold="1" page="1" pageScale="1" pageWidth="827" pageHeight="1169" math="0" shadow="0">
      <root>
        <mxCell id="0" />
        <mxCell id="1" parent="0" />
        <mxCell id="AXHJGtEv2GNQ1HA1U-sA-9" value="Клиент" style="swimlane;fontStyle=0;childLayout=stackLayout;horizontal=1;startSize=26;fillColor=none;horizontalStack=0;resizeParent=1;resizeParentMax=0;resizeLast=0;collapsible=1;marginBottom=0;whiteSpace=wrap;html=1;" vertex="1" parent="1">
          <mxGeometry x="570" y="140" width="140" height="80" as="geometry" />
        </mxCell>
        <mxCell id="AXHJGtEv2GNQ1HA1U-sA-10" value="+giveWatbill()&lt;br&gt;+pay()&lt;br&gt;+ order()" style="text;strokeColor=none;fillColor=none;align=left;verticalAlign=top;spacingLeft=4;spacingRight=4;overflow=hidden;rotatable=0;points=[[0,0.5],[1,0.5]];portConstraint=eastwest;whiteSpace=wrap;html=1;" vertex="1" parent="AXHJGtEv2GNQ1HA1U-sA-9">
          <mxGeometry y="26" width="140" height="54" as="geometry" />
        </mxCell>
        <mxCell id="AXHJGtEv2GNQ1HA1U-sA-13" value="Товар" style="swimlane;fontStyle=0;childLayout=stackLayout;horizontal=1;startSize=26;fillColor=none;horizontalStack=0;resizeParent=1;resizeParentMax=0;resizeLast=0;collapsible=1;marginBottom=0;whiteSpace=wrap;html=1;" vertex="1" parent="1">
          <mxGeometry x="330" y="218" width="200" height="80" as="geometry" />
        </mxCell>
        <mxCell id="AXHJGtEv2GNQ1HA1U-sA-14" value="+ цена: Float[0..*]{readOnly}&amp;nbsp;&lt;br&gt;+ кол-во: Integer[1..*]{readOnly}&lt;br&gt;+ наименование: String{readOnly}" style="text;strokeColor=none;fillColor=none;align=left;verticalAlign=top;spacingLeft=4;spacingRight=4;overflow=hidden;rotatable=0;points=[[0,0.5],[1,0.5]];portConstraint=eastwest;whiteSpace=wrap;html=1;" vertex="1" parent="AXHJGtEv2GNQ1HA1U-sA-13">
          <mxGeometry y="26" width="200" height="54" as="geometry" />
        </mxCell>
        <mxCell id="AXHJGtEv2GNQ1HA1U-sA-17" value="Счет" style="swimlane;fontStyle=0;childLayout=stackLayout;horizontal=1;startSize=26;fillColor=none;horizontalStack=0;resizeParent=1;resizeParentMax=0;resizeLast=0;collapsible=1;marginBottom=0;whiteSpace=wrap;html=1;" vertex="1" parent="1">
          <mxGeometry x="330" y="330" width="200" height="80" as="geometry" />
        </mxCell>
        <mxCell id="AXHJGtEv2GNQ1HA1U-sA-18" value="+ стоимость: Float[0..*]{readOnly}&lt;br&gt;+ кол-во: Integer[1..*]{readOnly}&lt;br&gt;+ наименование: String{readOnly}" style="text;strokeColor=none;fillColor=none;align=left;verticalAlign=top;spacingLeft=4;spacingRight=4;overflow=hidden;rotatable=0;points=[[0,0.5],[1,0.5]];portConstraint=eastwest;whiteSpace=wrap;html=1;" vertex="1" parent="AXHJGtEv2GNQ1HA1U-sA-17">
          <mxGeometry y="26" width="200" height="54" as="geometry" />
        </mxCell>
        <mxCell id="AXHJGtEv2GNQ1HA1U-sA-22" value="Накладная" style="swimlane;fontStyle=0;childLayout=stackLayout;horizontal=1;startSize=26;fillColor=none;horizontalStack=0;resizeParent=1;resizeParentMax=0;resizeLast=0;collapsible=1;marginBottom=0;whiteSpace=wrap;html=1;" vertex="1" parent="1">
          <mxGeometry x="330" y="430" width="200" height="70" as="geometry" />
        </mxCell>
        <mxCell id="AXHJGtEv2GNQ1HA1U-sA-23" value="+ кол-во: Integer[1..*]{readOnly}&lt;br&gt;+ наименование: String{readOnly}" style="text;strokeColor=none;fillColor=none;align=left;verticalAlign=top;spacingLeft=4;spacingRight=4;overflow=hidden;rotatable=0;points=[[0,0.5],[1,0.5]];portConstraint=eastwest;whiteSpace=wrap;html=1;" vertex="1" parent="AXHJGtEv2GNQ1HA1U-sA-22">
          <mxGeometry y="26" width="200" height="44" as="geometry" />
        </mxCell>
        <mxCell id="AXHJGtEv2GNQ1HA1U-sA-26" value="" style="endArrow=none;html=1;edgeStyle=orthogonalEdgeStyle;rounded=0;entryX=0.5;entryY=0;entryDx=0;entryDy=0;" edge="1" parent="1" source="AXHJGtEv2GNQ1HA1U-sA-10" target="AXHJGtEv2GNQ1HA1U-sA-42">
          <mxGeometry relative="1" as="geometry">
            <mxPoint x="120" y="350" as="sourcePoint" />
            <mxPoint x="181.2700000000001" y="257.80000000000007" as="targetPoint" />
          </mxGeometry>
        </mxCell>
        <mxCell id="AXHJGtEv2GNQ1HA1U-sA-35" value="" style="endArrow=open;dashed=1;endFill=0;endSize=12;html=1;rounded=0;" edge="1" parent="1" target="AXHJGtEv2GNQ1HA1U-sA-18">
          <mxGeometry width="160" relative="1" as="geometry">
            <mxPoint x="610" y="194.5" as="sourcePoint" />
            <mxPoint x="510" y="490" as="targetPoint" />
            <Array as="points">
              <mxPoint x="670" y="195" />
              <mxPoint x="670" y="383" />
            </Array>
          </mxGeometry>
        </mxCell>
        <mxCell id="AXHJGtEv2GNQ1HA1U-sA-38" value="Бухгалтер" style="swimlane;fontStyle=0;childLayout=stackLayout;horizontal=1;startSize=26;fillColor=none;horizontalStack=0;resizeParent=1;resizeParentMax=0;resizeLast=0;collapsible=1;marginBottom=0;whiteSpace=wrap;html=1;" vertex="1" parent="1">
          <mxGeometry x="120" y="322" width="140" height="78" as="geometry" />
        </mxCell>
        <mxCell id="AXHJGtEv2GNQ1HA1U-sA-39" value="+confirmPayment()" style="text;strokeColor=none;fillColor=none;align=left;verticalAlign=top;spacingLeft=4;spacingRight=4;overflow=hidden;rotatable=0;points=[[0,0.5],[1,0.5]];portConstraint=eastwest;whiteSpace=wrap;html=1;" vertex="1" parent="AXHJGtEv2GNQ1HA1U-sA-38">
          <mxGeometry y="26" width="140" height="26" as="geometry" />
        </mxCell>
        <mxCell id="AXHJGtEv2GNQ1HA1U-sA-40" value="+formWaybill()" style="text;strokeColor=none;fillColor=none;align=left;verticalAlign=top;spacingLeft=4;spacingRight=4;overflow=hidden;rotatable=0;points=[[0,0.5],[1,0.5]];portConstraint=eastwest;whiteSpace=wrap;html=1;" vertex="1" parent="AXHJGtEv2GNQ1HA1U-sA-38">
          <mxGeometry y="52" width="140" height="26" as="geometry" />
        </mxCell>
        <mxCell id="AXHJGtEv2GNQ1HA1U-sA-42" value="Менеджер" style="swimlane;fontStyle=0;childLayout=stackLayout;horizontal=1;startSize=26;fillColor=none;horizontalStack=0;resizeParent=1;resizeParentMax=0;resizeLast=0;collapsible=1;marginBottom=0;whiteSpace=wrap;html=1;" vertex="1" parent="1">
          <mxGeometry x="110" y="219" width="170" height="78" as="geometry" />
        </mxCell>
        <mxCell id="AXHJGtEv2GNQ1HA1U-sA-43" value="+ getProductAvaliability()" style="text;strokeColor=none;fillColor=none;align=left;verticalAlign=top;spacingLeft=4;spacingRight=4;overflow=hidden;rotatable=0;points=[[0,0.5],[1,0.5]];portConstraint=eastwest;whiteSpace=wrap;html=1;" vertex="1" parent="AXHJGtEv2GNQ1HA1U-sA-42">
          <mxGeometry y="26" width="170" height="26" as="geometry" />
        </mxCell>
        <mxCell id="AXHJGtEv2GNQ1HA1U-sA-44" value="+formBill()" style="text;strokeColor=none;fillColor=none;align=left;verticalAlign=top;spacingLeft=4;spacingRight=4;overflow=hidden;rotatable=0;points=[[0,0.5],[1,0.5]];portConstraint=eastwest;whiteSpace=wrap;html=1;" vertex="1" parent="AXHJGtEv2GNQ1HA1U-sA-42">
          <mxGeometry y="52" width="170" height="26" as="geometry" />
        </mxCell>
        <mxCell id="AXHJGtEv2GNQ1HA1U-sA-46" value="Кладовщик" style="swimlane;fontStyle=0;childLayout=stackLayout;horizontal=1;startSize=26;fillColor=none;horizontalStack=0;resizeParent=1;resizeParentMax=0;resizeLast=0;collapsible=1;marginBottom=0;whiteSpace=wrap;html=1;" vertex="1" parent="1">
          <mxGeometry x="600" y="510" width="140" height="52" as="geometry" />
        </mxCell>
        <mxCell id="AXHJGtEv2GNQ1HA1U-sA-52" value="" style="endArrow=diamondThin;endFill=1;endSize=24;html=1;rounded=0;" edge="1" parent="AXHJGtEv2GNQ1HA1U-sA-46" target="AXHJGtEv2GNQ1HA1U-sA-51">
          <mxGeometry width="160" relative="1" as="geometry">
            <mxPoint y="30" as="sourcePoint" />
            <mxPoint x="160" y="30" as="targetPoint" />
          </mxGeometry>
        </mxCell>
        <mxCell id="AXHJGtEv2GNQ1HA1U-sA-47" value="+giveProduct()" style="text;strokeColor=none;fillColor=none;align=left;verticalAlign=top;spacingLeft=4;spacingRight=4;overflow=hidden;rotatable=0;points=[[0,0.5],[1,0.5]];portConstraint=eastwest;whiteSpace=wrap;html=1;" vertex="1" parent="AXHJGtEv2GNQ1HA1U-sA-46">
          <mxGeometry y="26" width="140" height="26" as="geometry" />
        </mxCell>
        <mxCell id="AXHJGtEv2GNQ1HA1U-sA-51" value="Сотрудник" style="html=1;whiteSpace=wrap;" vertex="1" parent="1">
          <mxGeometry x="135" y="512" width="110" height="50" as="geometry" />
        </mxCell>
        <mxCell id="AXHJGtEv2GNQ1HA1U-sA-55" value="" style="endArrow=diamondThin;endFill=1;endSize=24;html=1;rounded=0;" edge="1" parent="1" source="AXHJGtEv2GNQ1HA1U-sA-40" target="AXHJGtEv2GNQ1HA1U-sA-51">
          <mxGeometry width="160" relative="1" as="geometry">
            <mxPoint x="170" y="420" as="sourcePoint" />
            <mxPoint x="330" y="420" as="targetPoint" />
          </mxGeometry>
        </mxCell>
        <mxCell id="AXHJGtEv2GNQ1HA1U-sA-56" value="" style="endArrow=diamondThin;endFill=1;endSize=24;html=1;rounded=0;exitX=0;exitY=0.25;exitDx=0;exitDy=0;entryX=0.001;entryY=0.657;entryDx=0;entryDy=0;entryPerimeter=0;" edge="1" parent="1" target="AXHJGtEv2GNQ1HA1U-sA-51">
          <mxGeometry width="160" relative="1" as="geometry">
            <mxPoint x="110" y="270" as="sourcePoint" />
            <mxPoint x="20" y="270" as="targetPoint" />
            <Array as="points">
              <mxPoint x="50" y="270" />
              <mxPoint x="50" y="545" />
            </Array>
          </mxGeometry>
        </mxCell>
        <mxCell id="AXHJGtEv2GNQ1HA1U-sA-66" value="" style="endArrow=none;html=1;edgeStyle=orthogonalEdgeStyle;rounded=0;exitX=1;exitY=0.5;exitDx=0;exitDy=0;" edge="1" parent="1" source="AXHJGtEv2GNQ1HA1U-sA-10">
          <mxGeometry relative="1" as="geometry">
            <mxPoint x="710" y="190" as="sourcePoint" />
            <mxPoint x="720" y="510" as="targetPoint" />
          </mxGeometry>
        </mxCell>
        <mxCell id="AXHJGtEv2GNQ1HA1U-sA-67" value="1" style="edgeLabel;resizable=0;html=1;align=left;verticalAlign=bottom;" connectable="0" vertex="1" parent="AXHJGtEv2GNQ1HA1U-sA-66">
          <mxGeometry x="-1" relative="1" as="geometry" />
        </mxCell>
        <mxCell id="AXHJGtEv2GNQ1HA1U-sA-68" value="1" style="edgeLabel;resizable=0;html=1;align=right;verticalAlign=bottom;" connectable="0" vertex="1" parent="AXHJGtEv2GNQ1HA1U-sA-66">
          <mxGeometry x="1" relative="1" as="geometry">
            <mxPoint x="10" as="offset" />
          </mxGeometry>
        </mxCell>
        <mxCell id="AXHJGtEv2GNQ1HA1U-sA-69" value="1" style="text;html=1;align=center;verticalAlign=middle;resizable=0;points=[];autosize=1;strokeColor=none;fillColor=none;" vertex="1" parent="1">
          <mxGeometry x="550" y="170" width="30" height="30" as="geometry" />
        </mxCell>
        <mxCell id="AXHJGtEv2GNQ1HA1U-sA-70" value="1" style="text;html=1;align=center;verticalAlign=middle;resizable=0;points=[];autosize=1;strokeColor=none;fillColor=none;" vertex="1" parent="1">
          <mxGeometry x="170" y="190" width="30" height="30" as="geometry" />
        </mxCell>
        <mxCell id="AXHJGtEv2GNQ1HA1U-sA-59" value="" style="endArrow=open;dashed=1;endFill=0;endSize=12;html=1;rounded=0;" edge="1" parent="1" source="AXHJGtEv2GNQ1HA1U-sA-42" target="AXHJGtEv2GNQ1HA1U-sA-13">
          <mxGeometry width="160" relative="1" as="geometry">
            <mxPoint x="250" y="260" as="sourcePoint" />
            <mxPoint x="330" y="270" as="targetPoint" />
          </mxGeometry>
        </mxCell>
        <mxCell id="AXHJGtEv2GNQ1HA1U-sA-58" value="" style="endArrow=open;dashed=1;endFill=0;endSize=12;html=1;rounded=0;" edge="1" parent="1" source="AXHJGtEv2GNQ1HA1U-sA-38" target="AXHJGtEv2GNQ1HA1U-sA-17">
          <mxGeometry width="160" relative="1" as="geometry">
            <mxPoint x="230" y="360" as="sourcePoint" />
            <mxPoint x="330" y="366" as="targetPoint" />
          </mxGeometry>
        </mxCell>
        <mxCell id="AXHJGtEv2GNQ1HA1U-sA-71" value="" style="endArrow=open;dashed=1;endFill=0;endSize=12;html=1;rounded=0;exitX=0.5;exitY=0;exitDx=0;exitDy=0;" edge="1" parent="1" source="AXHJGtEv2GNQ1HA1U-sA-46" target="AXHJGtEv2GNQ1HA1U-sA-22">
          <mxGeometry width="160" relative="1" as="geometry">
            <mxPoint x="600" y="510" as="sourcePoint" />
            <mxPoint x="760" y="510" as="targetPoint" />
            <Array as="points">
              <mxPoint x="670" y="465" />
            </Array>
          </mxGeometry>
        </mxCell>
      </root>
    </mxGraphModel>
  </diagram>
</mxfile>
